# xmcd
#
# Track frame offsets:
#	150
#	9467
#	20822
#	32546
#	47892
#	59985
#	72000
#	83014
#	94223
#	105247
#	121180
#	133274
#	142245
#	155990
#	165292
#	175065
#	186394
#	196297
#	208005
#	219901
#	230477
#	240337
#	255509
#	272387
#	282405
#	291442
#	299639
#	306363
#	316599
#	325227
#
# Disc length: 4434 seconds
# Revision: 1
# Processed by: cddbd v1.5.2PL0 Copyright (c) Steve Scherf et al.
# Submitted via: dBpowerAMP V12.0
#
DISCID=c211501e
DTITLE=Sister Rosetta Tharpe - Gospel Train and Sister on Tour
DYEAR=1956
DGENRE=Gospel
TTITLE0=Jericho
TTITLE1=When They Ring The Golden Bell
TTITLE2=Two Little Fishes Five Loaves Of Bread
TTITLE3=Beams Of Heaven
TTITLE4=Ain't No Grave Hold My Body Down
TTITLE5=All Alone
TTITLE6=Up Above My Head There's Music In The Air
TTITLE7=I Shall Know Him
TTITLE8=Fly Away
TTITLE9=How About You
TTITLE10=Precious Memories
TTITLE11=99 1/2 Won't Do
TTITLE12=Joy In This Land
TTITLE13=God Is Wonderful
TTITLE14=Just Keep Still
TTITLE15=Everything To Me
TTITLE16=Take A New Look
TTITLE17=Look In The Good Book Brother
TTITLE18=With His Great Love
TTITLE19=As You Sow, So Shall You Reap
TTITLE20=There's A Hand Leading Me
TTITLE21=Faith In God
TTITLE22=Woman
TTITLE23=The Lonesome Road
TTITLE24=Walk All Over God's Heaven
TTITLE25=Twelve Gates (To The City)
TTITLE26=Oh, The Joy That Came To Me
TTITLE27=Blow Ye The Trumpet In Zion
TTITLE28=Didn't It Rain
TTITLE29=Can't Sit Down
EXTD=
EXTT0=
EXTT1=
EXTT2=
EXTT3=
EXTT4=
EXTT5=
EXTT6=
EXTT7=
EXTT8=
EXTT9=
EXTT10=
EXTT11=
EXTT12=
EXTT13=
EXTT14=
EXTT15=
EXTT16=
EXTT17=
EXTT18=
EXTT19=
EXTT20=
EXTT21=
EXTT22=
EXTT23=
EXTT24=
EXTT25=
EXTT26=
EXTT27=
EXTT28=
EXTT29=
PLAYORDER=
